<svg width="21" height="13" viewBox="0 0 21 13" fill="none" xmlns="http://www.w3.org/2000/svg">
<path fill-rule="evenodd" clip-rule="evenodd" d="M0.00020809 6.53696C9.39429e-05 6.28737 0.161041 6.04344 0.420384 5.93711C0.701129 5.82199 0.988209 5.88871 1.21393 6.13733C1.83718 6.82369 2.45626 7.51388 3.07687 8.20271C3.96003 9.18289 4.84536 10.1611 5.72326 11.146C5.82925 11.2648 5.87833 11.2539 5.9729 11.1402C6.24212 10.817 6.51727 10.4982 6.80264 10.1892C6.90931 10.0738 6.90143 10.0093 6.79807 9.89574C5.9479 8.9627 5.10607 8.02207 4.25904 7.08617C4.09752 6.90765 3.99787 6.71143 4.03908 6.46653C4.08571 6.18903 4.24597 5.99253 4.51461 5.91554C4.79707 5.83455 5.04814 5.91034 5.24972 6.13521C5.76846 6.71411 6.28949 7.29101 6.80971 7.8686C7.78824 8.95482 8.76922 10.0389 9.74233 11.1299C9.85921 11.261 9.91172 11.252 10.0227 11.1245C13.1651 7.51588 16.3116 3.91089 19.4576 0.30549C19.7147 0.0108766 20.0063 -0.0713667 20.3107 0.0619001C20.5803 0.179985 20.7385 0.451941 20.7149 0.752319C20.6987 0.957385 20.5792 1.10589 20.4515 1.25223C19.3537 2.50904 18.2567 3.76649 17.1595 5.02382C14.9418 7.56525 12.7231 10.1059 10.5077 12.6494C10.2857 12.9043 10.043 13.0686 9.68896 12.9645C9.53932 12.9206 9.42836 12.8249 9.32683 12.7116C8.87937 12.2124 8.42427 11.7199 7.98543 11.2133C7.86523 11.0745 7.8113 11.1016 7.70857 11.2224C7.29284 11.7113 6.86787 12.1923 6.4461 12.6761C6.07689 13.0996 5.65432 13.1091 5.28243 12.6969C3.59145 10.8223 1.90201 8.94626 0.211551 7.07122C0.0835352 6.92916 -0.00487146 6.77176 0.00020809 6.53696Z" fill="#707070"/>
<path fill-rule="evenodd" clip-rule="evenodd" d="M9.56336 8.72112C9.30624 8.69669 9.08771 8.58037 8.96991 8.32251C8.84509 8.04925 8.89086 7.7939 9.08708 7.56829C9.62951 6.94447 10.1736 6.3222 10.717 5.6993C12.1131 4.09913 13.5105 2.50004 14.9041 0.897755C15.0908 0.68333 15.3074 0.554686 15.5954 0.605196C16.1341 0.699653 16.3451 1.31571 15.9825 1.74496C15.6146 2.18037 15.2346 2.60545 14.8598 3.03505C13.3044 4.81774 11.748 6.59963 10.1948 8.38433C10.0286 8.57535 9.84553 8.71758 9.56336 8.72112Z" fill="#707070"/>
</svg>
